<?xml version="1.0" encoding="utf-8"?>
<!-- Generator: Adobe Illustrator 24.0.0, SVG Export Plug-In . SVG Version: 6.00 Build 0)  -->
<svg version="1.1" id="Layer_1" xmlns="http://www.w3.org/2000/svg" xmlns:xlink="http://www.w3.org/1999/xlink" x="0px" y="0px"
	 viewBox="0 0 1920 788.9" style="enable-background:new 0 0 1920 788.9;" xml:space="preserve">
<style type="text/css">
	.st0{fill:#80AF41;}
	.st1{fill:#C3C777;}
	.st2{fill:#71AFBD;}
	.st3{fill:url(#SVGID_1_);}
</style>
<g>
	<path class="st0" d="M186.5,471.7v18h-47.6c19.3,17.8,29,36.6,29,56.3c0,17.7-3.8,31.7-11.3,42c-7.5,10.3-16.5,17.8-26.8,22.5
		c-10.4,4.7-24.2,9.2-41.5,13.4c-17.3,4.3-28.1,8.4-32.5,12.3c-4.4,4-6.6,8.5-6.6,13.7c0,6.1,2.9,10.9,8.6,14.6
		c5.7,3.6,23.4,6.3,53.1,8c29.7,1.7,49.8,7.4,60.1,17s15.5,22.6,15.5,38.6c0,18.9-8.3,33.8-24.9,44.6
		c-16.6,10.8-39.7,16.3-69.3,16.3c-29.4,0-52.2-5.1-68.2-15.3C8,763.3,0,749.8,0,733c0-27.3,20.5-44.2,61.4-50.7v-0.9
		c-22.5-5.3-33.8-15.2-33.8-29.8c0-14.7,13.9-26.1,41.8-34.1v-0.9C50.9,611,37,601.9,27.5,589.2c-9.5-12.7-14.3-26.9-14.3-42.4
		c0-22.1,7.7-40.1,23-54.1c15.4-14,37.4-20.9,66.1-20.9H186.5z M93.6,770.3c21.8,0,39.1-3.7,52-11.2c12.9-7.4,19.3-17.3,19.3-29.4
		c0-24.6-22.3-36.9-67-36.9c-50.9,0-76.3,12.9-76.3,38.8C21.6,757.4,45.6,770.3,93.6,770.3 M90.3,602.4c15.3,0,28.5-5.5,39.5-16.6
		c11-11.1,16.5-24.3,16.5-39.7c0-15.4-5.5-28.6-16.5-39.5c-11-10.9-24.3-16.4-39.9-16.4c-15.5,0-28.5,5.3-39.2,16
		C40.1,517,34.8,530,34.8,545.2c0,15.9,5.4,29.4,16.2,40.5C61.7,596.9,74.8,602.4,90.3,602.4"/>
	<path class="st0" d="M365.8,492.1l-13.1,21c-17.6-16-31.8-24-42.6-24c-21.2,0-43.8,20.1-67.9,60.3v132.1h-22.2V471.7h22.2V527h0.9
		c25.3-40,50-60.1,74.1-60.1C331,466.9,347.2,475.3,365.8,492.1"/>
	<path class="st0" d="M555.2,568.8h-166c-0.5,3.7-0.7,7.3-0.7,11c0,23.5,8.4,43.5,25.2,59.8c16.8,16.3,36.7,24.5,59.6,24.5
		c26.7,0,52.8-10.4,78.3-31.2v25.4c-24.1,18.6-51.1,27.9-80.9,27.9c-30.3,0-55.4-10.6-75.2-31.7c-19.8-21.1-29.7-48-29.7-80.6
		c0-30.9,9.1-56.5,27.4-76.8c18.3-20.3,41.3-30.4,69-30.4c26.1,0,48.1,9.1,66.1,27.4C546.2,512.6,555.2,537.5,555.2,568.8
		 M392.1,550.9h136.7c-8-41.2-30.2-61.8-66.7-61.8c-17.3,0-32.2,5.4-44.8,16.2C404.6,516.1,396.2,531.3,392.1,550.9"/>
	<path class="st0" d="M779.3,568.8h-166c-0.5,3.7-0.7,7.3-0.7,11c0,23.5,8.4,43.5,25.2,59.8c16.8,16.3,36.7,24.5,59.6,24.5
		c26.7,0,52.8-10.4,78.3-31.2v25.4c-24.1,18.6-51.1,27.9-80.9,27.9c-30.3,0-55.4-10.6-75.2-31.7c-19.8-21.1-29.7-48-29.7-80.6
		c0-30.9,9.1-56.5,27.4-76.8c18.3-20.3,41.3-30.4,69-30.4c26.1,0,48.1,9.1,66.1,27.4C770.3,512.6,779.3,537.5,779.3,568.8
		 M616.2,550.9h136.7c-8-41.2-30.2-61.8-66.7-61.8c-17.3,0-32.2,5.4-44.8,16.2C628.7,516.1,620.4,531.3,616.2,550.9"/>
	<path class="st0" d="M846.3,471.7v36.1h0.9c17.6-27.3,40.9-40.9,69.7-40.9c23.9,0,43,7.6,57.3,22.9c14.3,15.3,21.4,36.4,21.4,63.4
		v128.4h-22.2V561.8c0-48.5-19.2-72.7-57.7-72.7c-28.1,0-51.3,15-69.4,45v147.5h-22.2V471.7H846.3z"/>
	<path class="st1" d="M1201.6,477.1v25.2c-20-8.8-38.1-13.2-54.3-13.2c-23.3,0-42.3,8.2-56.9,24.5c-14.6,16.3-21.9,37.6-21.9,63.7
		c0,26.6,7.3,47.7,21.9,63.4c14.6,15.7,34.1,23.5,58.6,23.5c17.8,0,36.6-4,56.2-12v23.4c-20.9,7.2-40.3,10.8-58.2,10.8
		c-30.6,0-55.4-9.8-74.2-29.4c-18.9-19.6-28.3-45.3-28.3-77.1c0-33.2,9.5-60.3,28.6-81.4c19.1-21.1,43.4-31.6,73-31.6
		C1162.3,466.9,1180.8,470.3,1201.6,477.1"/>
	<path class="st1" d="M1346.9,466.9c30.5,0,55.9,10.5,76.3,31.5c20.3,21,30.5,47.1,30.5,78.5c0,31.2-10.2,57.3-30.5,78.2
		c-20.4,20.9-45.8,31.3-76.3,31.3c-30.5,0-56-10.4-76.5-31.3c-20.5-20.9-30.8-47-30.8-78.2c0-31.4,10.3-57.5,30.8-78.5
		C1290.9,477.4,1316.4,466.9,1346.9,466.9 M1346.9,664.2c23.6,0,43.3-8.3,59.1-24.9c15.8-16.6,23.7-37.4,23.7-62.5
		c0-24.9-8-45.7-23.8-62.6c-15.9-16.8-35.6-25.2-59-25.2c-23.7,0-43.5,8.3-59.4,25c-15.9,16.6-23.8,37.6-23.8,62.8
		c0,25.1,7.9,45.9,23.8,62.5C1303.3,655.9,1323.1,664.2,1346.9,664.2"/>
	<path class="st1" d="M1683.3,362.6v319h-22.8v-16c-19.1,13.9-39.7,20.8-61.7,20.8c-29.7,0-54.7-10.6-75-31.8
		c-20.3-21.2-30.5-47.3-30.5-78.2c0-31.4,10-57.5,30.1-78.3c20.1-20.8,45.2-31.2,75.5-31.2c19.2,0,39.8,5.7,61.7,17.2V362.6H1683.3z
		 M1660.5,645V508.7c-19.9-13.1-40.2-19.6-60.7-19.6c-24,0-43.8,8.1-59.3,24.2c-15.5,16.1-23.3,36.7-23.3,61.8
		c0,25.5,8.3,46.8,24.9,63.7c16.6,17,37.3,25.4,62.2,25.4C1623.7,664.2,1642.4,657.8,1660.5,645"/>
	<path class="st1" d="M1920,568.8h-166c-0.5,3.7-0.7,7.3-0.7,11c0,23.5,8.4,43.5,25.2,59.8c16.8,16.3,36.7,24.5,59.6,24.5
		c26.7,0,52.8-10.4,78.3-31.2v25.4c-24.1,18.6-51.1,27.9-80.9,27.9c-30.3,0-55.4-10.6-75.2-31.7c-19.8-21.1-29.7-48-29.7-80.6
		c0-30.9,9.1-56.5,27.4-76.8c18.3-20.3,41.3-30.4,69-30.4c26.1,0,48.1,9.1,66.1,27.4C1911,512.6,1920,537.5,1920,568.8 M1757,550.9
		h136.7c-8-41.2-30.2-61.8-66.7-61.8c-17.3,0-32.2,5.4-44.8,16.2C1769.5,516.1,1761.1,531.3,1757,550.9"/>
	<path class="st2" d="M74.2,324.2h23.2c17.2,0,24.6,10.3,24.6,20.4c0,8.3-3.9,13.7-12.2,17.1v0.2c11.9,2.2,19.2,10.1,19.2,20.8
		c0,9.8-7.4,21.3-27.4,21.3H74.2V324.2z M85.7,358.3h7.6c11.4,0,16.8-4.2,16.8-12.8c0-6-3.4-11.1-13.9-11.1H85.7V358.3z M85.7,393.7
		h14.4c13.5,0,17.1-6.7,17.1-12.6c0-7.3-5.6-12.4-17.7-12.4H85.7V393.7z"/>
	<path class="st2" d="M259.7,372.6c0,19.5-11.7,32.4-35.4,32.4c-16.8,0-33.2-9.5-33.2-31.2v-49.6h11.5v47.1c0,9,1.2,12.8,4.8,16.4
		c4.6,4.6,10.3,6.8,17.2,6.8c8.8,0,15.1-2.8,18.7-6.4c4.1-4.1,5-9.9,5-17.4v-46.4h11.5V372.6z"/>
	<polygon class="st2" points="370.8,334.5 339.7,334.5 339.7,356.6 370.8,356.6 370.8,366.9 339.7,366.9 339.7,404 328.3,404 
		328.3,324.2 370.8,324.2 	"/>
	<polygon class="st2" points="478.3,334.5 447.2,334.5 447.2,356.6 478.3,356.6 478.3,366.9 447.2,366.9 447.2,404 435.8,404 
		435.8,324.2 478.3,324.2 	"/>
	<path class="st2" d="M606.6,404h-11.7l-10.6-23.5h-33.9L540.2,404h-11.7l34.3-80.2h8.1L606.6,404z M554.7,370.2h24.8l-12.9-28.9
		L554.7,370.2z"/>
	<polygon class="st2" points="679.3,393.7 715.3,393.7 715.3,404 667.9,404 667.9,324.2 679.3,324.2 	"/>
	<path class="st2" d="M817.2,323.1c26.3,0,42.9,18.7,42.9,40.9c0,21.5-16.1,40.9-43.2,40.9c-26.1,0-42.6-19.3-42.6-40.9
		C774.4,342,791.4,323.1,817.2,323.1 M817.2,394.5c17.9,0,31.1-13,31.1-30.4c0-17.5-13.2-30.4-31.1-30.4c-17.8,0-31,12.9-31,30.4
		C786.2,381.5,799.4,394.5,817.2,394.5"/>
	<linearGradient id="SVGID_1_" gradientUnits="userSpaceOnUse" x1="1782.8572" y1="83.3029" x2="953.4851" y2="336.3901">
		<stop  offset="0" style="stop-color:#D0DF62"/>
		<stop  offset="0.422" style="stop-color:#A7C651"/>
		<stop  offset="0.7894" style="stop-color:#8BB445"/>
		<stop  offset="1" style="stop-color:#80AD41"/>
	</linearGradient>
	<path class="st3" d="M1468.3,368c-0.2,5.8,2.3,13-2.7,16.4c-4.3,2.9-9.5,0.4-13-3.4c-2,7.1-4.3,14.1-6.8,21c-0.2,0.5-1-0.9-2-2.3
		c-1.4-1.9-3.2-3.8-4.6-1.1c-2.1,4.1-2.7,10-2.6,15.1c8.2-1.4,16.4-3,24.3-4.9c5.7-8.8,12.2-18.5,14.9-28.4c1.2-4.3,2.1-8.6,3-13
		C1475.6,368.3,1471.9,368.5,1468.3,368 M1630.6,291.7c-29.3,13-58.6,27.8-90.8,30c-1.2,8.2,5.5,17.5,3.1,26.6
		c-2.3,9.1-12.1,12.2-20.8,10.9c-0.2,5.8,2.2,13-2.7,16.3c-4.3,2.9-9.5,0.4-13.1-3.4c-1.9,7.1-4.2,14.1-6.8,21c-0.2,0.5-1-0.9-2-2.3
		c-1.4-1.9-3.2-3.8-4.6-1.1c-1.5,2.9-2.7,7.3-2.7,10.9c67.8-21.8,123-61.1,156-107.4c5.4-7.6,10.5-15,15.4-22.4
		C1653.4,280.3,1641.1,287,1630.6,291.7 M1281.9,200.8h15c1.5,0,3.3,0.5,4-0.2c4.6-4.7,4-13,1.3-16c-8.8-9.7-22-18.6-20.4-33.1
		C1265.9,166.9,1285.3,183.5,1281.9,200.8 M1217.6,36.3c-54.4,33.8-73,110-92.6,160.3c-19.6,50.2-42.2,103.8-65,130.5
		c-30.3,35.4-62.3,65.7-103.1,78.7c0,0,25.7,37.2,41.7,33.3c62.2-28.5,97.3-119.2,97.3-119.2c105.4,80.6,215.5,106,311.3,97.4
		c5.6-8.7,12.1-18.4,14.8-28.3c3.5-12.9,5.7-26.4,6.9-40c-3-11.2,2-23.5-2-34.4c-0.5-1.2-4.5-0.9-5.6,1.9
		c-3.7,10.5-12.8,22.1-23.4,18.2c-7.5-2.8-14.7-7.2-21.4-12.4c-6.5-5-9-14.2-17.7-16.1c-1-0.2-1.7,0.9-2.5,1.9
		c-0.9,1.1-2,2.2-3.8,1.8c-0.3,16.9-9,36.1-25.9,39.8c-11.1,2.4-18.7-11.8-20.2-22.5c-1.3-9.1-12-13.6-16.4-21.1
		c-12.1,2.3-24.2,1.4-33.1-7.7c-6.6-6.7-4.4-18.3-7.3-27.7c-7.2-23.5-5.9-49.3-6.4-74.4l0.1-0.3c-1.7-0.2-2.9-0.2-3.9-0.2
		c-1,0-1.7,0-1.8-0.2c-11.4-15.6,1.4-31.1,12.9-41.3c17.3-15.3,40.1-26.5,63.3-23.3c10.6,1.4,21.3,11.4,31.8,4.4
		c29.2-19.4,54-42.5,86.7-48.2c47-8.1,99.5-15.2,143.2,10.4c1.6,0.9,2.2,2.7,4.3,2.1c-1.1,0.6-2.7,0.7-3.6,1.5
		c12.7,3.2,25.3,7.1,38.1,10.6c32.6,9.1,65.9,2.2,98.2,12.1c7.2,2.2,16.2,5.4,23.1,9.2c20.1-45.4,35.2-85.3,53.2-118.5
		C1696,50.5,1613.7,50.8,1513,27.9C1461.4,16.2,1405.6,0,1348.3,0C1305.2,0,1261.2,9.2,1217.6,36.3"/>
</g>
</svg>
