<?xml version="1.0" encoding="utf-8"?>
<!-- Generator: Adobe Illustrator 24.0.0, SVG Export Plug-In . SVG Version: 6.00 Build 0)  -->
<svg version="1.1" id="Layer_1" xmlns="http://www.w3.org/2000/svg" xmlns:xlink="http://www.w3.org/1999/xlink" x="0px" y="0px"
	 viewBox="0 0 512 512" style="enable-background:new 0 0 512 512;" xml:space="preserve">
<style type="text/css">
	.st0{fill:#FFFFFF;}
</style>
<path class="st0" d="M314.8,347.3c-0.2,3.6,1.4,8-1.6,10.1c-2.7,1.8-5.9,0.3-8-2.1c-1.2,4.4-2.6,8.7-4.2,12.9
	c-0.1,0.3-0.6-0.6-1.2-1.4c-0.8-1.2-2-2.3-2.8-0.7c-1.3,2.5-1.6,6.2-1.6,9.3c5.1-0.8,10.1-1.9,15-3c3.5-5.4,7.5-11.4,9.2-17.5
	c0.7-2.6,1.3-5.3,1.9-8C319.2,347.5,317,347.6,314.8,347.3 M414.7,300.3c-18,8-36.1,17.1-55.9,18.5c-0.8,5,3.4,10.8,1.9,16.4
	c-1.4,5.6-7.5,7.5-12.8,6.7c-0.1,3.6,1.4,8-1.6,10c-2.7,1.8-5.9,0.3-8-2.1c-1.2,4.4-2.6,8.7-4.2,12.9c-0.1,0.3-0.6-0.6-1.2-1.4
	c-0.8-1.2-2-2.3-2.8-0.7c-0.9,1.8-1.6,4.5-1.7,6.7c41.7-13.4,75.7-37.6,96-66.1c3.3-4.7,6.5-9.2,9.5-13.8
	C428.7,293.3,421.1,297.4,414.7,300.3 M200,244.4h9.2c0.9,0,2.1,0.3,2.5-0.1c2.8-2.9,2.5-8,0.8-9.8c-5.4-6-13.6-11.5-12.5-20.4
	C190.2,223.5,202.1,233.7,200,244.4 M160.4,143.1c-33.5,20.8-44.9,67.7-57,98.6c-12.1,30.9-26,63.9-40,80.3
	C44.8,343.9,25.1,362.5,0,370.5c0,0,15.8,22.9,25.7,20.5c38.3-17.5,59.9-73.4,59.9-73.4c64.9,49.6,132.6,65.3,191.6,60
	c3.5-5.4,7.5-11.3,9.1-17.4c2.2-8,3.5-16.3,4.2-24.6c-1.9-6.9,1.2-14.5-1.2-21.2c-0.3-0.8-2.8-0.6-3.4,1.2
	c-2.3,6.5-7.9,13.6-14.4,11.2c-4.6-1.7-9.1-4.5-13.2-7.6c-4-3.1-5.5-8.7-10.9-9.9c-0.6-0.1-1,0.5-1.5,1.2c-0.5,0.7-1.2,1.4-2.4,1.1
	c-0.2,10.4-5.5,22.2-15.9,24.5c-6.9,1.5-11.5-7.3-12.4-13.8c-0.8-5.6-7.4-8.4-10.1-13c-7.4,1.4-14.9,0.9-20.4-4.8
	c-4-4.1-2.7-11.2-4.5-17c-4.4-14.5-3.6-30.3-3.9-45.8l0.1-0.2c-1-0.1-1.8-0.1-2.4-0.1c-0.6,0-1,0-1.1-0.1c-7-9.6,0.8-19.1,7.9-25.4
	c10.6-9.4,24.7-16.3,38.9-14.4c6.5,0.9,13.1,7,19.5,2.7c18-11.9,33.2-26.2,53.4-29.7c28.9-5,61.3-9.4,88.1,6.4
	c1,0.6,1.4,1.7,2.6,1.3c-0.7,0.4-1.7,0.4-2.2,0.9c7.8,1.9,15.6,4.3,23.5,6.5c20.1,5.6,40.5,1.4,60.4,7.5c4.5,1.4,10,3.3,14.2,5.7
	c12.4-27.9,21.7-52.5,32.7-72.9c-57.1,21.7-107.8,22-169.7,7.9c-31.8-7.2-66.1-17.2-101.4-17.2C214.3,120.8,187.3,126.4,160.4,143.1
	"/>
</svg>
