<svg xmlns="http://www.w3.org/2000/svg" viewBox="0 0 512 512">
  <defs/>
  <linearGradient id="a" x1="508.3403" x2="-2.1039" y1="341.9496" y2="186.185" gradientTransform="matrix(1 0 0 -1 0 514)" gradientUnits="userSpaceOnUse">
    <stop offset="0" stop-color="#d0df62"/>
    <stop offset=".422" stop-color="#a7c651"/>
    <stop offset=".789" stop-color="#8bb445"/>
    <stop offset="1" stop-color="#80ad41"/>
  </linearGradient>
  <path fill="url(#a)" d="M314.7 347.3c-.1 3.6 1.4 8-1.7 10.1-2.6 1.8-5.8.2-8-2.1-1.2 4.4-2.6 8.7-4.2 12.9-.1.3-.6-.6-1.2-1.4-.9-1.2-2-2.3-2.8-.7-1.3 2.5-1.7 6.2-1.6 9.3 5-.9 10.1-1.8 15-3 3.5-5.4 7.5-11.4 9.2-17.5.7-2.6 1.3-5.3 1.8-8-2 .6-4.2.7-6.5.4m99.9-47c-18 8-36.1 17.1-55.9 18.5-.7 5 3.4 10.8 1.9 16.4-1.4 5.6-7.4 7.5-12.8 6.7-.1 3.6 1.4 8-1.7 10-2.6 1.8-5.8.2-8.1-2.1-1.2 4.4-2.6 8.7-4.2 12.9-.1.3-.6-.6-1.2-1.4-.9-1.2-2-2.3-2.8-.7-.9 1.8-1.7 4.5-1.7 6.7 41.7-13.4 75.7-37.6 96-66.1 3.3-4.7 6.5-9.2 9.5-13.8-4.9 5.9-12.5 10-19 12.9M200 244.4h9.2c.9 0 2 .3 2.5-.1 2.8-2.9 2.5-8 .8-9.8-5.4-6-13.5-11.4-12.6-20.4-9.7 9.4 2.2 19.6.1 30.3m-39.5-101.3c-33.5 20.8-44.9 67.7-57 98.7-12.1 30.9-26 63.9-40 80.3-18.7 21.8-38.4 40.4-63.5 48.4 0 0 15.8 22.9 25.7 20.5 38.3-17.5 59.9-73.4 59.9-73.4 64.9 49.6 132.6 65.2 191.6 59.9 3.4-5.4 7.4-11.3 9.1-17.4 2.2-7.9 3.5-16.2 4.2-24.6-1.8-6.9 1.2-14.5-1.2-21.2-.3-.7-2.8-.6-3.4 1.2-2.3 6.5-7.9 13.6-14.4 11.2-4.6-1.7-9-4.4-13.2-7.6-4-3.1-5.5-8.7-10.9-9.9-.6-.1-1 .6-1.5 1.2-.6.7-1.2 1.4-2.3 1.1-.2 10.4-5.5 22.2-15.9 24.5-6.8 1.5-11.5-7.3-12.4-13.8-.8-5.6-7.4-8.4-10.1-13-7.4 1.4-14.9.9-20.4-4.7-4.1-4.1-2.7-11.3-4.5-17-4.4-14.5-3.6-30.3-3.9-45.8l.1-.2c-1-.1-1.8-.1-2.4-.1s-1 0-1.1-.1c-7-9.6.9-19.1 7.9-25.4 10.6-9.4 24.7-16.3 39-14.3 6.5.9 13.1 7 19.6 2.7 18-11.9 33.2-26.2 53.4-29.7 28.9-5 61.2-9.4 88.1 6.4 1 .6 1.4 1.7 2.6 1.3-.7.4-1.7.4-2.2.9 7.8 2 15.6 4.4 23.4 6.5 20.1 5.6 40.6 1.4 60.4 7.4 4.4 1.4 10 3.3 14.2 5.7 12.4-27.9 21.7-52.5 32.7-72.9-57.1 22.1-107.8 22.3-169.7 8.2-31.8-7.2-66.1-17.2-101.4-17.2-26.6-.1-53.7 5.6-80.5 22.2"/>
</svg>
