<svg xmlns="http://www.w3.org/2000/svg" id="Layer_1" x="0" y="0" version="1.1" viewBox="0 0 1920 788.9" xml:space="preserve">
  <defs/>
  <path fill="#80af41" d="M186.5 471.7v18h-47.6c19.3 17.8 29 36.6 29 56.3 0 17.7-3.8 31.7-11.3 42s-16.5 17.8-26.8 22.5c-10.4 4.7-24.2 9.2-41.5 13.4-17.3 4.3-28.1 8.4-32.5 12.3-4.4 4-6.6 8.5-6.6 13.7 0 6.1 2.9 10.9 8.6 14.6 5.7 3.6 23.4 6.3 53.1 8s49.8 7.4 60.1 17 15.5 22.6 15.5 38.6c0 18.9-8.3 33.8-24.9 44.6S121.9 789 92.3 789c-29.4 0-52.2-5.1-68.2-15.3C8 763.3 0 749.8 0 733c0-27.3 20.5-44.2 61.4-50.7v-.9c-22.5-5.3-33.8-15.2-33.8-29.8 0-14.7 13.9-26.1 41.8-34.1v-.9C50.9 611 37 601.9 27.5 589.2s-14.3-26.9-14.3-42.4c0-22.1 7.7-40.1 23-54.1 15.4-14 37.4-20.9 66.1-20.9l84.2-.1zM93.6 770.3c21.8 0 39.1-3.7 52-11.2 12.9-7.4 19.3-17.3 19.3-29.4 0-24.6-22.3-36.9-67-36.9-50.9 0-76.3 12.9-76.3 38.8 0 25.8 24 38.7 72 38.7m-3.3-167.9c15.3 0 28.5-5.5 39.5-16.6s16.5-24.3 16.5-39.7-5.5-28.6-16.5-39.5c-11-10.9-24.3-16.4-39.9-16.4-15.5 0-28.5 5.3-39.2 16-10.6 10.8-15.9 23.8-15.9 39 0 15.9 5.4 29.4 16.2 40.5 10.7 11.2 23.8 16.7 39.3 16.7M365.8 492.1l-13.1 21c-17.6-16-31.8-24-42.6-24-21.2 0-43.8 20.1-67.9 60.3v132.1H220V471.7h22.2V527h.9c25.3-40 50-60.1 74.1-60.1 13.8 0 30 8.4 48.6 25.2M555.2 568.8h-166c-.5 3.7-.7 7.3-.7 11 0 23.5 8.4 43.5 25.2 59.8 16.8 16.3 36.7 24.5 59.6 24.5 26.7 0 52.8-10.4 78.3-31.2v25.4c-24.1 18.6-51.1 27.9-80.9 27.9-30.3 0-55.4-10.6-75.2-31.7-19.8-21.1-29.7-48-29.7-80.6 0-30.9 9.1-56.5 27.4-76.8s41.3-30.4 69-30.4c26.1 0 48.1 9.1 66.1 27.4 17.9 18.5 26.9 43.4 26.9 74.7m-163.1-17.9h136.7c-8-41.2-30.2-61.8-66.7-61.8-17.3 0-32.2 5.4-44.8 16.2-12.7 10.8-21.1 26-25.2 45.6M779.3 568.8h-166c-.5 3.7-.7 7.3-.7 11 0 23.5 8.4 43.5 25.2 59.8s36.7 24.5 59.6 24.5c26.7 0 52.8-10.4 78.3-31.2v25.4c-24.1 18.6-51.1 27.9-80.9 27.9-30.3 0-55.4-10.6-75.2-31.7-19.8-21.1-29.7-48-29.7-80.6 0-30.9 9.1-56.5 27.4-76.8 18.3-20.3 41.3-30.4 69-30.4 26.1 0 48.1 9.1 66.1 27.4 17.9 18.5 26.9 43.4 26.9 74.7m-163.1-17.9h136.7c-8-41.2-30.2-61.8-66.7-61.8-17.3 0-32.2 5.4-44.8 16.2-12.7 10.8-21 26-25.2 45.6M846.3 471.7v36.1h.9c17.6-27.3 40.9-40.9 69.7-40.9 23.9 0 43 7.6 57.3 22.9s21.4 36.4 21.4 63.4v128.4h-22.2V561.8c0-48.5-19.2-72.7-57.7-72.7-28.1 0-51.3 15-69.4 45v147.5h-22.2V471.7h22.2z"/>
  <path fill="#c3c777" d="M1201.6 477.1v25.2c-20-8.8-38.1-13.2-54.3-13.2-23.3 0-42.3 8.2-56.9 24.5-14.6 16.3-21.9 37.6-21.9 63.7 0 26.6 7.3 47.7 21.9 63.4s34.1 23.5 58.6 23.5c17.8 0 36.6-4 56.2-12v23.4c-20.9 7.2-40.3 10.8-58.2 10.8-30.6 0-55.4-9.8-74.2-29.4-18.9-19.6-28.3-45.3-28.3-77.1 0-33.2 9.5-60.3 28.6-81.4s43.4-31.6 73-31.6c16.2 0 34.7 3.4 55.5 10.2M1346.9 466.9c30.5 0 55.9 10.5 76.3 31.5 20.3 21 30.5 47.1 30.5 78.5 0 31.2-10.2 57.3-30.5 78.2-20.4 20.9-45.8 31.3-76.3 31.3s-56-10.4-76.5-31.3-30.8-47-30.8-78.2c0-31.4 10.3-57.5 30.8-78.5s46-31.5 76.5-31.5m0 197.3c23.6 0 43.3-8.3 59.1-24.9 15.8-16.6 23.7-37.4 23.7-62.5 0-24.9-8-45.7-23.8-62.6-15.9-16.8-35.6-25.2-59-25.2-23.7 0-43.5 8.3-59.4 25-15.9 16.6-23.8 37.6-23.8 62.8 0 25.1 7.9 45.9 23.8 62.5 15.8 16.6 35.6 24.9 59.4 24.9M1683.3 362.6v319h-22.8v-16c-19.1 13.9-39.7 20.8-61.7 20.8-29.7 0-54.7-10.6-75-31.8s-30.5-47.3-30.5-78.2c0-31.4 10-57.5 30.1-78.3s45.2-31.2 75.5-31.2c19.2 0 39.8 5.7 61.7 17.2V362.6h22.7zM1660.5 645V508.7c-19.9-13.1-40.2-19.6-60.7-19.6-24 0-43.8 8.1-59.3 24.2s-23.3 36.7-23.3 61.8c0 25.5 8.3 46.8 24.9 63.7 16.6 17 37.3 25.4 62.2 25.4 19.4 0 38.1-6.4 56.2-19.2M1920 568.8h-166c-.5 3.7-.7 7.3-.7 11 0 23.5 8.4 43.5 25.2 59.8 16.8 16.3 36.7 24.5 59.6 24.5 26.7 0 52.8-10.4 78.3-31.2v25.4c-24.1 18.6-51.1 27.9-80.9 27.9-30.3 0-55.4-10.6-75.2-31.7-19.8-21.1-29.7-48-29.7-80.6 0-30.9 9.1-56.5 27.4-76.8s41.3-30.4 69-30.4c26.1 0 48.1 9.1 66.1 27.4 17.9 18.5 26.9 43.4 26.9 74.7m-163-17.9h136.7c-8-41.2-30.2-61.8-66.7-61.8-17.3 0-32.2 5.4-44.8 16.2-12.7 10.8-21.1 26-25.2 45.6"/>
  <path fill="#71afbd" d="M74.2 324.2h23.2c17.2 0 24.6 10.3 24.6 20.4 0 8.3-3.9 13.7-12.2 17.1v.2c11.9 2.2 19.2 10.1 19.2 20.8 0 9.8-7.4 21.3-27.4 21.3H74.2v-79.8zm11.5 34.1h7.6c11.4 0 16.8-4.2 16.8-12.8 0-6-3.4-11.1-13.9-11.1H85.7v23.9zm0 35.4h14.4c13.5 0 17.1-6.7 17.1-12.6 0-7.3-5.6-12.4-17.7-12.4H85.7v25zM259.7 372.6c0 19.5-11.7 32.4-35.4 32.4-16.8 0-33.2-9.5-33.2-31.2v-49.6h11.5v47.1c0 9 1.2 12.8 4.8 16.4 4.6 4.6 10.3 6.8 17.2 6.8 8.8 0 15.1-2.8 18.7-6.4 4.1-4.1 5-9.9 5-17.4v-46.4h11.5v48.3h-.1zM370.8 334.5h-31.1v22.1h31.1v10.3h-31.1V404h-11.4v-79.8h42.5zM478.3 334.5h-31.1v22.1h31.1v10.3h-31.1V404h-11.4v-79.8h42.5zM606.6 404h-11.7l-10.6-23.5h-33.9L540.2 404h-11.7l34.3-80.2h8.1l35.7 80.2zm-51.9-33.8h24.8l-12.9-28.9-11.9 28.9zM679.3 393.7h36V404h-47.4v-79.8h11.4zM817.2 323.1c26.3 0 42.9 18.7 42.9 40.9 0 21.5-16.1 40.9-43.2 40.9-26.1 0-42.6-19.3-42.6-40.9.1-22 17.1-40.9 42.9-40.9m0 71.4c17.9 0 31.1-13 31.1-30.4 0-17.5-13.2-30.4-31.1-30.4-17.8 0-31 12.9-31 30.4 0 17.4 13.2 30.4 31 30.4"/>
  <linearGradient id="SVGID_1_" x1="1782.853" x2="953.482" y1="706.708" y2="453.622" gradientTransform="matrix(1 0 0 -1 0 790)" gradientUnits="userSpaceOnUse">
    <stop offset="0" stop-color="#d0df62"/>
    <stop offset=".422" stop-color="#a7c651"/>
    <stop offset=".789" stop-color="#8bb445"/>
    <stop offset="1" stop-color="#80ad41"/>
  </linearGradient>
  <path fill="url(#SVGID_1_)" d="M1468.3 368c-.2 5.8 2.3 13-2.7 16.4-4.3 2.9-9.5.4-13-3.4-2 7.1-4.3 14.1-6.8 21-.2.5-1-.9-2-2.3-1.4-1.9-3.2-3.8-4.6-1.1-2.1 4.1-2.7 10-2.6 15.1 8.2-1.4 16.4-3 24.3-4.9 5.7-8.8 12.2-18.5 14.9-28.4 1.2-4.3 2.1-8.6 3-13-3.2.9-6.9 1.1-10.5.6m162.3-76.3c-29.3 13-58.6 27.8-90.8 30-1.2 8.2 5.5 17.5 3.1 26.6-2.3 9.1-12.1 12.2-20.8 10.9-.2 5.8 2.2 13-2.7 16.3-4.3 2.9-9.5.4-13.1-3.4-1.9 7.1-4.2 14.1-6.8 21-.2.5-1-.9-2-2.3-1.4-1.9-3.2-3.8-4.6-1.1-1.5 2.9-2.7 7.3-2.7 10.9 67.8-21.8 123-61.1 156-107.4 5.4-7.6 10.5-15 15.4-22.4-8.2 9.5-20.5 16.2-31 20.9m-348.7-90.9h15c1.5 0 3.3.5 4-.2 4.6-4.7 4-13 1.3-16-8.8-9.7-22-18.6-20.4-33.1-15.9 15.4 3.5 32 .1 49.3m-64.3-164.5c-54.4 33.8-73 110-92.6 160.3-19.6 50.2-42.2 103.8-65 130.5-30.3 35.4-62.3 65.7-103.1 78.7 0 0 25.7 37.2 41.7 33.3 62.2-28.5 97.3-119.2 97.3-119.2 105.4 80.6 215.5 106 311.3 97.4 5.6-8.7 12.1-18.4 14.8-28.3 3.5-12.9 5.7-26.4 6.9-40-3-11.2 2-23.5-2-34.4-.5-1.2-4.5-.9-5.6 1.9-3.7 10.5-12.8 22.1-23.4 18.2-7.5-2.8-14.7-7.2-21.4-12.4-6.5-5-9-14.2-17.7-16.1-1-.2-1.7.9-2.5 1.9-.9 1.1-2 2.2-3.8 1.8-.3 16.9-9 36.1-25.9 39.8-11.1 2.4-18.7-11.8-20.2-22.5-1.3-9.1-12-13.6-16.4-21.1-12.1 2.3-24.2 1.4-33.1-7.7-6.6-6.7-4.4-18.3-7.3-27.7-7.2-23.5-5.9-49.3-6.4-74.4l.1-.3c-1.7-.2-2.9-.2-3.9-.2s-1.7 0-1.8-.2c-11.4-15.6 1.4-31.1 12.9-41.3 17.3-15.3 40.1-26.5 63.3-23.3 10.6 1.4 21.3 11.4 31.8 4.4 29.2-19.4 54-42.5 86.7-48.2 47-8.1 99.5-15.2 143.2 10.4 1.6.9 2.2 2.7 4.3 2.1-1.1.6-2.7.7-3.6 1.5 12.7 3.2 25.3 7.1 38.1 10.6 32.6 9.1 65.9 2.2 98.2 12.1 7.2 2.2 16.2 5.4 23.1 9.2 20.1-45.4 35.2-85.3 53.2-118.5-92.8 35.9-175.1 36.2-275.8 13.3C1461.4 16.2 1405.6 0 1348.3 0c-43.1 0-87.1 9.2-130.7 36.3"/>
</svg>
